<?xml version="1.0" standalone="no"?>
<!DOCTYPE svg PUBLIC "-//W3C//DTD SVG 20010904//EN"
 "http://www.w3.org/TR/2001/REC-SVG-20010904/DTD/svg10.dtd">
<svg version="1.0" xmlns="http://www.w3.org/2000/svg"
 width="192.000000pt" height="192.000000pt" viewBox="0 0 192.000000 192.000000"
 preserveAspectRatio="xMidYMid meet">
<metadata>
Created by potrace 1.11, written by Peter Selinger 2001-2013
</metadata>
<g transform="translate(0.000000,192.000000) scale(0.100000,-0.100000)"
fill="#000000" stroke="none">
<path d="M597 1914 c-1 -1 -20 -4 -42 -7 -60 -8 -96 -17 -117 -28 -10 -5 -18
-7 -18 -4 0 3 -11 -2 -25 -11 -14 -9 -25 -13 -25 -9 0 3 -6 0 -14 -7 -7 -7
-30 -26 -50 -43 -20 -16 -36 -35 -36 -41 0 -7 -6 -14 -13 -17 -8 -3 -21 -31
-31 -64 -9 -32 -21 -66 -27 -75 -6 -12 -6 -18 2 -18 5 0 7 -5 4 -11 -11 -16
-13 -89 -3 -89 5 0 6 -5 2 -12 -11 -17 -12 -68 -2 -74 5 -3 5 -11 1 -17 -11
-17 -11 -97 0 -97 5 0 4 -7 -3 -15 -6 -8 -9 -18 -7 -23 8 -11 -27 -86 -50
-109 -29 -29 -112 -73 -119 -62 -16 26 -24 -14 -24 -123 0 -67 3 -118 7 -115
3 4 12 2 20 -4 7 -6 13 -9 13 -6 0 3 18 -2 40 -12 67 -30 111 -94 114 -167 0
-24 5 -44 9 -44 5 0 5 -5 1 -12 -11 -18 -12 -68 -2 -68 5 0 6 -5 2 -12 -11
-17 -12 -68 -2 -74 5 -3 5 -11 1 -17 -10 -15 -11 -77 -3 -82 4 -3 6 -20 5 -40
-1 -19 2 -35 7 -35 4 0 8 -7 8 -15 0 -42 73 -142 125 -172 74 -43 165 -69 269
-77 51 -4 72 -1 82 9 10 9 11 16 4 20 -7 5 -8 11 -1 19 6 7 6 17 1 26 -5 9 -5
19 2 27 7 9 7 13 -2 13 -9 0 -9 4 -2 13 7 8 7 18 2 27 -5 9 -5 19 2 27 7 9 7
13 0 13 -6 0 -9 7 -6 15 5 12 -2 15 -30 16 -20 1 -39 3 -43 4 -34 12 -53 17
-58 16 -3 -1 -15 8 -27 19 -12 11 -25 20 -29 20 -11 0 -53 71 -55 94 -1 12 -3
94 -4 183 -1 89 -4 164 -8 167 -3 4 -7 13 -8 21 -5 35 -27 85 -36 85 -6 0 -9
3 -5 6 10 10 -66 90 -95 100 -10 3 -15 11 -11 19 3 8 9 13 13 10 4 -3 10 2 14
10 3 8 12 15 21 15 8 0 15 3 15 8 0 4 10 18 23 32 23 25 59 103 70 150 4 14 7
101 7 193 1 92 6 169 11 173 5 3 7 9 5 13 -7 10 59 83 67 74 4 -3 7 -2 7 4 0
6 10 14 23 18 30 10 36 12 42 15 11 5 26 8 61 9 l35 1 -2 63 c-1 35 1 69 5 75
4 7 2 12 -5 12 -7 0 -8 4 -2 13 5 6 7 23 4 37 -5 23 -11 25 -54 26 -26 0 -49
-1 -50 -2z"/>
<path d="M1223 1905 c-9 -9 -9 -16 -2 -20 6 -5 7 -11 0 -19 -6 -7 -6 -17 -1
-26 5 -9 5 -19 -2 -27 -7 -9 -7 -13 2 -13 9 0 9 -4 2 -13 -7 -8 -7 -18 -2 -27
5 -9 5 -19 -2 -27 -7 -9 -7 -13 0 -13 6 0 9 -7 6 -15 -5 -12 2 -15 30 -16 20
-1 39 -3 44 -4 36 -13 48 -16 52 -13 3 2 16 -7 30 -19 13 -13 27 -23 31 -23
11 0 53 -71 55 -94 1 -12 3 -96 4 -188 2 -93 6 -168 10 -168 3 0 7 -6 8 -12 4
-49 47 -128 84 -156 9 -7 24 -19 32 -27 8 -8 19 -15 25 -15 6 0 11 -4 11 -10
0 -5 -4 -10 -10 -10 -16 0 -81 -62 -107 -103 -23 -36 -33 -64 -35 -94 -1 -7
-4 -13 -8 -13 -4 0 -8 -80 -9 -177 -2 -185 -11 -228 -50 -262 -53 -45 -61 -50
-61 -45 0 4 -7 1 -15 -6 -8 -7 -24 -10 -35 -7 -11 3 -20 1 -20 -4 0 -5 -16 -9
-36 -9 l-35 0 2 -63 c1 -35 -1 -69 -5 -75 -4 -7 -2 -12 5 -12 9 0 10 -3 3 -10
-6 -6 -9 -23 -6 -39 l4 -29 66 4 c84 5 113 9 134 18 9 4 22 5 28 1 5 -3 10 -3
10 2 0 8 62 33 88 35 6 1 12 5 12 10 0 5 8 12 18 15 15 6 48 38 90 88 13 15
45 111 40 118 -2 2 3 11 11 20 7 10 10 17 5 17 -5 0 -9 11 -9 25 0 14 3 25 6
25 10 0 5 85 -6 92 -6 5 -5 8 4 8 10 0 11 3 2 13 -6 8 -8 17 -4 20 10 11 12
77 2 83 -5 3 -6 10 -2 16 3 7 8 28 9 47 2 20 7 48 12 61 13 32 67 92 75 83 4
-3 7 -2 7 4 0 9 11 14 63 28 4 2 10 4 15 5 4 1 11 2 15 1 4 -1 6 54 5 121 l-3
121 -30 3 c-49 6 -55 7 -55 14 0 3 -13 13 -29 23 -38 22 -78 103 -76 151 1 20
-2 36 -7 36 -5 0 -6 5 -2 12 11 18 12 68 2 68 -5 0 -6 5 -2 12 11 17 12 68 2
74 -5 3 -5 11 -1 17 10 15 11 77 3 82 -4 3 -6 20 -5 40 1 19 -2 35 -7 35 -4 0
-8 7 -8 15 0 42 -73 142 -125 172 -74 43 -166 69 -270 77 -52 4 -73 1 -82 -9z"/>
</g>
</svg>
